<svg width="250" height="250" fill="none" xmlns="http://www.w3.org/2000/svg"><path d="M0 60C0 26.863 26.863 0 60 0h130c33.137 0 60 26.863 60 60v130c0 33.137-26.863 60-60 60H60c-33.137 0-60-26.863-60-60V60z" fill="#7DDFC3"/><path d="M78.569 175c-7.905 0-15.628-.865-23.17-2.596-7.45-1.821-13.583-4.235-18.399-7.24l10.358-23.497c4.543 2.641 9.631 4.781 15.265 6.42 5.633 1.549 11.04 2.323 16.218 2.323 4.453 0 7.633-.41 9.54-1.23 1.909-.91 2.863-2.231 2.863-3.961 0-2.004-1.272-3.507-3.816-4.509-2.453-1.001-6.542-2.094-12.266-3.278-7.36-1.549-13.493-3.188-18.4-4.918-4.906-1.822-9.177-4.736-12.811-8.744-3.635-4.098-5.452-9.608-5.452-16.53 0-6.01 1.681-11.475 5.043-16.393 3.362-4.918 8.36-8.789 14.992-11.612C65.258 76.412 73.39 75 82.93 75a84.61 84.61 0 0119.217 2.186c6.361 1.366 11.949 3.415 16.764 6.147l-9.676 23.361c-9.36-4.736-18.218-7.104-26.577-7.104-8.269 0-12.403 2.004-12.403 6.011 0 1.913 1.227 3.37 3.68 4.372 2.453.91 6.497 1.912 12.13 3.005 7.269 1.366 13.402 2.96 18.399 4.782 4.998 1.73 9.314 4.599 12.948 8.606 3.725 4.007 5.588 9.472 5.588 16.394 0 6.01-1.681 11.475-5.043 16.393-3.362 4.827-8.404 8.698-15.128 11.612-6.633 2.823-14.72 4.235-24.26 4.235zM135 75h33.775v73.857H214V175h-79V75z" fill="#fff"/></svg>